<svg width="21" height="20" viewBox="0 0 21 20" fill="none" xmlns="http://www.w3.org/2000/svg">
<path d="M1.09806 0.50971C0.827278 0.455554 0.563866 0.631162 0.50971 0.901942C0.455554 1.17272 0.631162 1.43613 0.901942 1.49029L1.09806 0.50971ZM3.8 4.5L3.30238 4.54976L3.30356 4.55957L3.8 4.5ZM20.2855 7.35783L19.8005 7.23656L20.2855 7.35783ZM19.1628 11.8489L18.6777 11.7276L19.1628 11.8489ZM3.6472 2.97203L3.14968 3.02178L3.6472 2.97203ZM0.901942 1.49029L1.9513 1.70016L2.14742 0.719582L1.09806 0.50971L0.901942 1.49029ZM6.77435 15H15.7673V14H6.77435V15ZM19.6479 11.9701L20.7706 7.4791L19.8005 7.23656L18.6777 11.7276L19.6479 11.9701ZM3.14968 3.02178L3.30248 4.54975L4.29752 4.45025L4.14472 2.92227L3.14968 3.02178ZM3.30356 4.55957L4.29216 12.7979L5.28503 12.6787L4.29644 4.44043L3.30356 4.55957ZM18.0542 4H3.8V5H18.0542V4ZM20.7706 7.4791C21.2124 5.71189 19.8758 4 18.0542 4V5C19.2252 5 20.0845 6.1005 19.8005 7.23656L20.7706 7.4791ZM15.7673 15C17.6028 15 19.2027 13.7508 19.6479 11.9701L18.6777 11.7276C18.3438 13.0631 17.1439 14 15.7673 14V15ZM6.77435 14C6.01505 14 5.3755 13.4326 5.28503 12.6787L4.29216 12.7979C4.44294 14.0544 5.50885 15 6.77435 15V14ZM1.9513 1.70016C2.5978 1.82946 3.08408 2.36575 3.14968 3.02178L4.14472 2.92227C4.03538 1.82889 3.22492 0.935081 2.14742 0.719582L1.9513 1.70016Z" fill="white"/>
<path d="M12 11.5H8" stroke="white" stroke-linecap="round" stroke-linejoin="round"/>
<circle cx="7.5" cy="18" r="1.5" fill="white"/>
<circle cx="16.5" cy="18" r="1.5" fill="white"/>
</svg>
