<svg width="14" height="13" viewBox="0 0 14 13" fill="none" xmlns="http://www.w3.org/2000/svg">
<path d="M1.96711 7.27213L6.60218 11.6263C6.65402 11.675 6.67995 11.6993 6.70463 11.7174C6.88049 11.8462 7.11949 11.8462 7.29535 11.7174C7.32003 11.6993 7.34595 11.675 7.3978 11.6263L12.0329 7.27213C13.337 6.04705 13.4954 4.03106 12.3985 2.61737L12.1923 2.35155C10.8802 0.660376 8.24641 0.943999 7.32443 2.87576C7.1942 3.14863 6.80578 3.14863 6.67554 2.87576C5.75357 0.943999 3.1198 0.660376 1.80769 2.35155L1.60145 2.61737C0.504622 4.03106 0.662992 6.04705 1.96711 7.27213Z" stroke="white"/>
</svg>
